# Blender 4.2.4 LTS
# www.blender.org
mtllib wheel_motor_link2.mtl
o wheel_motor_link2
v 0.070000 -0.027700 -0.000000
v 0.070000 0.027700 0.000000
v 0.069998 0.027700 0.000524
v 0.069998 -0.027700 0.000524
v 0.068967 0.027700 0.011983
v 0.068967 -0.027700 0.011983
v 0.066072 0.027700 0.023120
v 0.066072 -0.027700 0.023119
v 0.061392 0.027700 0.033631
v 0.061392 -0.027700 0.033631
v 0.055053 0.027700 0.043234
v 0.055053 -0.027700 0.043234
v 0.047227 0.027700 0.051668
v 0.047227 -0.027700 0.051668
v 0.038125 0.027700 0.058707
v 0.038125 -0.027700 0.058707
v 0.027992 0.027700 0.064159
v 0.027992 -0.027700 0.064159
v 0.017104 0.027700 0.067878
v 0.017104 -0.027700 0.067878
v 0.005753 0.027700 0.069763
v 0.005753 -0.027700 0.069763
v -0.000000 -0.027700 0.070000
v 0.000000 0.027700 0.070000
v -0.005753 -0.027700 0.069763
v -0.005753 0.027700 0.069763
v -0.017104 0.027700 0.067878
v -0.017104 -0.027700 0.067878
v -0.027992 0.027700 0.064159
v -0.027992 -0.027700 0.064159
v -0.038125 0.027700 0.058707
v -0.038125 -0.027700 0.058707
v -0.047227 0.027700 0.051668
v -0.047227 -0.027700 0.051668
v -0.055053 0.027700 0.043234
v -0.055053 -0.027700 0.043234
v -0.061392 0.027700 0.033631
v -0.061392 -0.027700 0.033631
v -0.066072 0.027700 0.023120
v -0.066072 -0.027700 0.023119
v -0.068967 0.027700 0.011983
v -0.068967 -0.027700 0.011983
v -0.069998 0.027700 0.000524
v -0.069998 -0.027700 0.000524
v -0.070000 0.027700 0.000000
v -0.070000 -0.027700 -0.000000
v -0.069998 -0.027700 -0.000524
v 0.005753 -0.027700 -0.069763
v 0.069998 -0.027700 -0.000524
v -0.000000 -0.027700 -0.070000
v -0.005753 -0.027700 -0.069763
v 0.017104 -0.027700 -0.067878
v 0.027992 -0.027700 -0.064159
v 0.038125 -0.027700 -0.058707
v -0.061392 -0.027700 -0.033631
v -0.055053 -0.027700 -0.043234
v -0.047227 -0.027700 -0.051668
v -0.038125 -0.027700 -0.058707
v -0.027992 -0.027700 -0.064159
v -0.017104 -0.027700 -0.067878
v 0.068967 -0.027700 -0.011983
v 0.066072 -0.027700 -0.023120
v 0.061392 -0.027700 -0.033631
v -0.068967 -0.027700 -0.011983
v -0.066072 -0.027700 -0.023120
v 0.047227 -0.027700 -0.051668
v 0.055053 -0.027700 -0.043234
v -0.069998 0.027700 -0.000524
v -0.068967 0.027700 -0.011983
v -0.066072 0.027700 -0.023119
v -0.061392 0.027700 -0.033631
v -0.055053 0.027700 -0.043234
v -0.047227 0.027700 -0.051668
v -0.038125 0.027700 -0.058707
v -0.027992 0.027700 -0.064159
v -0.017104 0.027700 -0.067878
v -0.005753 0.027700 -0.069763
v 0.000000 0.027700 -0.070000
v 0.005753 0.027700 -0.069763
v 0.017104 0.027700 -0.067878
v 0.027992 0.027700 -0.064159
v 0.038125 0.027700 -0.058707
v 0.047227 0.027700 -0.051668
v 0.055053 0.027700 -0.043234
v 0.061392 0.027700 -0.033631
v 0.066072 0.027700 -0.023119
v 0.068967 0.027700 -0.011983
v 0.069998 0.027700 -0.000524
vn 1.0000 -0.0000 0.0037
vn 1.0000 -0.0000 0.0038
vn 0.9960 -0.0000 0.0896
vn 0.9678 -0.0000 0.2516
vn 0.9135 -0.0000 0.4067
vn 0.8346 -0.0000 0.5509
vn 0.7331 -0.0000 0.6802
vn 0.6117 -0.0000 0.7911
vn 0.4739 -0.0000 0.8806
vn 0.3232 -0.0000 0.9463
vn 0.1638 -0.0000 0.9865
vn 0.0411 -0.0000 0.9992
vn -0.0411 -0.0000 0.9992
vn -0.1638 -0.0000 0.9865
vn -0.3232 -0.0000 0.9463
vn -0.4739 -0.0000 0.8806
vn -0.6117 -0.0000 0.7911
vn -0.7331 -0.0000 0.6802
vn -0.8346 -0.0000 0.5509
vn -0.9135 -0.0000 0.4067
vn -0.9678 -0.0000 0.2516
vn -0.9960 -0.0000 0.0896
vn -1.0000 -0.0000 0.0037
vn -0.0000 -1.0000 -0.0000
vn -1.0000 -0.0000 -0.0037
vn -0.9960 -0.0000 -0.0896
vn -0.9678 -0.0000 -0.2516
vn -0.9135 -0.0000 -0.4067
vn -0.8346 -0.0000 -0.5509
vn -0.7331 -0.0000 -0.6802
vn -0.6117 -0.0000 -0.7911
vn -0.4739 -0.0000 -0.8806
vn -0.3232 -0.0000 -0.9463
vn -0.1638 -0.0000 -0.9865
vn -0.0411 -0.0000 -0.9992
vn 0.0411 -0.0000 -0.9992
vn 0.1638 -0.0000 -0.9865
vn 0.3232 -0.0000 -0.9463
vn 0.4739 -0.0000 -0.8806
vn 0.6117 -0.0000 -0.7911
vn 0.7331 -0.0000 -0.6802
vn 0.8346 -0.0000 -0.5509
vn 0.9135 -0.0000 -0.4067
vn 0.9678 -0.0000 -0.2516
vn 0.9960 -0.0000 -0.0896
vn 1.0000 -0.0000 -0.0037
vn 1.0000 -0.0000 -0.0038
vn -0.0000 1.0000 -0.0000
vt 0.595587 0.614081
vt 0.640129 0.614081
vt 0.640129 0.612241
vt 0.595587 0.612241
vt 0.640129 0.572638
vt 0.595587 0.572638
vt 0.640129 0.535450
vt 0.595587 0.535450
vt 0.640129 0.501683
vt 0.595587 0.501683
vt 0.640129 0.869164
vt 0.605300 0.869164
vt 0.605300 0.837649
vt 0.640129 0.837649
vt 0.605300 0.802204
vt 0.640128 0.802204
vt 0.605300 0.763787
vt 0.640129 0.763787
vt 0.605300 0.723436
vt 0.640129 0.723436
vt 0.605300 0.682240
vt 0.640129 0.682240
vt 0.605301 0.641313
vt 0.640129 0.641313
vt 0.640129 0.621298
vt 0.605300 0.621298
vt 0.640129 0.601761
vt 0.605300 0.601761
vt 0.605300 0.564653
vt 0.640129 0.564653
vt 0.605300 0.530990
vt 0.640129 0.530990
vt 0.605300 0.501683
vt 0.640128 0.501683
vt 0.406772 0.501683
vt 0.605300 0.501683
vt 0.605300 0.532677
vt 0.406772 0.532677
vt 0.605300 0.567707
vt 0.406772 0.567707
vt 0.605300 0.605827
vt 0.406772 0.605827
vt 0.605300 0.646007
vt 0.406772 0.646007
vt 0.605300 0.687161
vt 0.406772 0.687161
vt 0.605300 0.728177
vt 0.406772 0.728177
vt 0.605300 0.730020
vt 0.406772 0.730020
vt 0.615678 0.241492
vt 0.697865 0.736412
vt 0.696013 0.736712
vt 0.406772 0.509568
vt 0.613828 0.241806
vt 0.409312 0.530045
vt 0.413526 0.550244
vt 0.699715 0.241806
vt 0.739622 0.252180
vt 0.493245 0.427659
vt 0.500000 0.468335
vt 0.500000 0.509568
vt 0.406772 0.468335
vt 0.413526 0.427660
vt 0.426853 0.388640
vt 0.497460 0.447858
vt 0.617530 0.241192
vt 0.658648 0.238110
vt 0.493245 0.550244
vt 0.479918 0.589264
vt 0.460379 0.625574
vt 0.573922 0.725724
vt 0.536253 0.708953
vt 0.501841 0.686238
vt 0.471615 0.658192
vt 0.446392 0.625574
vt 0.426853 0.589264
vt 0.573921 0.252180
vt 0.536253 0.268951
vt 0.501841 0.291666
vt 0.777290 0.268951
vt 0.648001 0.291666
vt 0.479918 0.388639
vt 0.678227 0.319712
vt 0.460379 0.352330
vt 0.654895 0.501683
vt 0.613828 0.736097
vt 0.446392 0.352330
vt 0.471615 0.319712
vt 0.678227 0.658192
vt 0.648001 0.686238
vt 0.777290 0.708953
vt 0.739622 0.725724
vt 0.699715 0.736097
vt 0.605300 0.731860
vt 0.406772 0.731860
vt 0.605300 0.771463
vt 0.406772 0.771463
vt 0.605300 0.808651
vt 0.406772 0.808651
vt 0.605300 0.842418
vt 0.406772 0.842418
vt 0.605300 0.871852
vt 0.406772 0.871852
vt 0.630415 0.501683
vt 0.630415 0.533752
vt 0.595587 0.533752
vt 0.630415 0.569634
vt 0.595587 0.569634
vt 0.630415 0.608358
vt 0.595587 0.608358
vt 0.630415 0.648880
vt 0.595587 0.648880
vt 0.630415 0.690103
vt 0.595587 0.690103
vt 0.595587 0.710630
vt 0.630415 0.710630
vt 0.595587 0.730915
vt 0.630415 0.730915
vt 0.630415 0.770212
vt 0.595587 0.770212
vt 0.630415 0.806933
vt 0.595587 0.806933
vt 0.630415 0.840086
vt 0.595587 0.840086
vt 0.595587 0.842418
vt 0.640129 0.842418
vt 0.640129 0.811424
vt 0.595587 0.811424
vt 0.640129 0.776394
vt 0.595587 0.776394
vt 0.640129 0.738274
vt 0.595587 0.738274
vt 0.640129 0.698094
vt 0.595587 0.698094
vt 0.640129 0.656940
vt 0.595587 0.656940
vt 0.640129 0.615924
vt 0.595587 0.615924
vt 0.796679 0.625574
vt 0.795651 0.627144
vt 0.724491 0.279600
vt 0.706818 0.268951
vt 0.539621 0.352330
vt 0.540649 0.350760
vt 0.541688 0.349198
vt 0.632786 0.267173
vt 0.670701 0.250967
vt 0.710759 0.241192
vt 0.751876 0.238110
vt 0.768903 0.660943
vt 0.629482 0.708953
vt 0.794612 0.628706
vt 0.611808 0.698303
vt 0.595070 0.686238
vt 0.564844 0.658192
vt 0.707057 0.736097
vt 0.703513 0.710731
vt 0.748124 0.501683
vt 0.665598 0.726937
vt 0.625541 0.736712
vt 0.500000 0.468335
vt 0.500000 0.509568
vt 0.506755 0.550244
vt 0.567396 0.316961
vt 0.598038 0.289370
vt 0.629243 0.241806
vt 0.669149 0.252180
vt 0.741230 0.291666
vt 0.771456 0.319712
vt 0.796679 0.352330
vt 0.816218 0.388639
vt 0.829545 0.427659
vt 0.836299 0.468335
vt 0.836299 0.509568
vt 0.829545 0.550244
vt 0.816218 0.589264
vt 0.738261 0.688533
vt 0.667150 0.725724
vt 0.539621 0.625574
vt 0.520082 0.589264
vt 0.506755 0.427659
vt 0.520082 0.388639
s 0
usemtl Material.001
f 1/1/1 2/2/1 3/3/1
f 1/1/2 3/3/2 4/4/2
f 4/4/3 3/3/3 5/5/3
f 4/4/3 5/5/3 6/6/3
f 6/6/4 5/5/4 7/7/4
f 6/6/4 7/7/4 8/8/4
f 8/8/5 7/7/5 9/9/5
f 8/8/5 9/9/5 10/10/5
f 10/11/6 9/12/6 11/13/6
f 10/11/6 11/13/6 12/14/6
f 12/14/7 11/13/7 13/15/7
f 12/14/7 13/15/7 14/16/7
f 14/16/8 13/15/8 15/17/8
f 14/16/8 15/17/8 16/18/8
f 16/18/9 15/17/9 17/19/9
f 16/18/9 17/19/9 18/20/9
f 18/20/10 17/19/10 19/21/10
f 18/20/10 19/21/10 20/22/10
f 20/22/11 19/21/11 21/23/11
f 20/22/11 21/23/11 22/24/11
f 22/24/12 21/23/12 23/25/12
f 23/25/12 21/23/12 24/26/12
f 23/25/13 24/26/13 25/27/13
f 24/26/13 26/28/13 25/27/13
f 25/27/14 26/28/14 27/29/14
f 25/27/14 27/29/14 28/30/14
f 28/30/15 27/29/15 29/31/15
f 28/30/15 29/31/15 30/32/15
f 30/32/16 29/31/16 31/33/16
f 30/32/16 31/33/16 32/34/16
f 32/35/17 31/36/17 33/37/17
f 32/35/17 33/37/17 34/38/17
f 34/38/18 33/37/18 35/39/18
f 34/38/18 35/39/18 36/40/18
f 36/40/19 35/39/19 37/41/19
f 36/40/19 37/41/19 38/42/19
f 38/42/20 37/41/20 39/43/20
f 38/42/20 39/43/20 40/44/20
f 40/44/21 39/43/21 41/45/21
f 40/44/21 41/45/21 42/46/21
f 42/46/22 41/45/22 43/47/22
f 42/46/22 43/47/22 44/48/22
f 44/48/23 43/47/23 45/49/23
f 44/48/23 45/49/23 46/50/23
f 1/51/24 46/52/24 47/53/24
f 48/54/24 49/55/24 50/56/24
f 50/56/24 49/55/24 1/51/24
f 50/56/24 1/51/24 51/57/24
f 8/58/24 10/59/24 22/60/24
f 1/51/24 25/61/24 28/62/24
f 48/54/24 52/63/24 49/55/24
f 49/55/24 52/63/24 53/64/24
f 49/55/24 53/64/24 54/65/24
f 25/61/24 1/51/24 23/66/24
f 23/66/24 1/51/24 4/67/24
f 23/66/24 4/67/24 22/60/24
f 22/60/24 4/67/24 6/68/24
f 22/60/24 6/68/24 8/58/24
f 28/62/24 30/69/24 1/51/24
f 1/51/24 30/69/24 32/70/24
f 1/51/24 32/70/24 34/71/24
f 55/72/24 56/73/24 1/51/24
f 1/51/24 56/73/24 57/74/24
f 1/51/24 57/74/24 58/75/24
f 58/75/24 59/76/24 1/51/24
f 1/51/24 59/76/24 60/77/24
f 1/51/24 60/77/24 51/57/24
f 61/78/24 49/55/24 62/79/24
f 62/79/24 49/55/24 63/80/24
f 10/59/24 12/81/24 22/60/24
f 22/60/24 12/81/24 14/82/24
f 22/60/24 14/82/24 20/83/24
f 20/83/24 14/82/24 16/84/24
f 20/83/24 16/84/24 18/85/24
f 47/53/24 64/86/24 1/51/24
f 1/51/24 64/86/24 65/87/24
f 1/51/24 65/87/24 55/72/24
f 54/65/24 66/88/24 49/55/24
f 49/55/24 66/88/24 67/89/24
f 49/55/24 67/89/24 63/80/24
f 34/71/24 36/90/24 1/51/24
f 1/51/24 36/90/24 38/91/24
f 1/51/24 38/91/24 40/92/24
f 40/92/24 42/93/24 1/51/24
f 1/51/24 42/93/24 44/94/24
f 1/51/24 44/94/24 46/52/24
f 46/50/25 45/49/25 68/95/25
f 46/50/25 68/95/25 47/96/25
f 47/96/26 68/95/26 69/97/26
f 47/96/26 69/97/26 64/98/26
f 64/98/27 69/97/27 70/99/27
f 64/98/27 70/99/27 65/100/27
f 65/100/28 70/99/28 71/101/28
f 65/100/28 71/101/28 55/102/28
f 55/102/29 71/101/29 72/103/29
f 55/102/29 72/103/29 56/104/29
f 56/10/30 72/105/30 73/106/30
f 56/10/30 73/106/30 57/107/30
f 57/107/31 73/106/31 74/108/31
f 57/107/31 74/108/31 58/109/31
f 58/109/32 74/108/32 75/110/32
f 58/109/32 75/110/32 59/111/32
f 59/111/33 75/110/33 76/112/33
f 59/111/33 76/112/33 60/113/33
f 60/113/34 76/112/34 77/114/34
f 60/113/34 77/114/34 51/115/34
f 51/115/35 77/114/35 50/116/35
f 50/116/35 77/114/35 78/117/35
f 50/116/36 78/117/36 48/118/36
f 78/117/36 79/119/36 48/118/36
f 48/118/37 79/119/37 80/120/37
f 48/118/37 80/120/37 52/121/37
f 52/121/38 80/120/38 81/122/38
f 52/121/38 81/122/38 53/123/38
f 53/123/39 81/122/39 82/124/39
f 53/123/39 82/124/39 54/125/39
f 54/126/40 82/127/40 83/128/40
f 54/126/40 83/128/40 66/129/40
f 66/129/41 83/128/41 84/130/41
f 66/129/41 84/130/41 67/131/41
f 67/131/42 84/130/42 85/132/42
f 67/131/42 85/132/42 63/133/42
f 63/133/43 85/132/43 86/134/43
f 63/133/43 86/134/43 62/135/43
f 62/135/44 86/134/44 87/136/44
f 62/135/44 87/136/44 61/137/44
f 61/137/45 87/136/45 88/138/45
f 61/137/45 88/138/45 49/139/45
f 49/139/46 88/138/46 2/2/46
f 49/139/47 2/2/47 1/1/47
f 3/140/48 2/141/48 24/142/48
f 24/142/48 2/141/48 26/143/48
f 68/144/48 45/145/48 2/141/48
f 2/141/48 45/145/48 43/146/48
f 37/147/48 35/148/48 2/141/48
f 2/141/48 35/148/48 33/149/48
f 2/141/48 33/149/48 31/150/48
f 87/151/48 79/152/48 88/153/48
f 88/153/48 79/152/48 78/154/48
f 88/153/48 78/154/48 2/141/48
f 2/141/48 78/154/48 77/155/48
f 2/141/48 77/155/48 76/156/48
f 81/157/48 85/158/48 82/159/48
f 82/159/48 85/158/48 84/160/48
f 82/159/48 84/160/48 83/161/48
f 71/162/48 2/141/48 72/163/48
f 72/163/48 2/141/48 73/164/48
f 43/146/48 41/165/48 2/141/48
f 2/141/48 41/165/48 39/166/48
f 2/141/48 39/166/48 37/147/48
f 31/150/48 29/167/48 2/141/48
f 2/141/48 29/167/48 27/168/48
f 2/141/48 27/168/48 26/143/48
f 24/142/48 21/169/48 3/140/48
f 3/140/48 21/169/48 19/170/48
f 3/140/48 19/170/48 17/171/48
f 17/171/48 15/172/48 3/140/48
f 3/140/48 15/172/48 13/173/48
f 3/140/48 13/173/48 11/174/48
f 11/174/48 9/175/48 3/140/48
f 3/140/48 9/175/48 7/176/48
f 3/140/48 7/176/48 5/177/48
f 87/151/48 86/178/48 79/152/48
f 79/152/48 86/178/48 85/158/48
f 79/152/48 85/158/48 80/179/48
f 80/179/48 85/158/48 81/157/48
f 76/156/48 75/180/48 2/141/48
f 2/141/48 75/180/48 74/181/48
f 2/141/48 74/181/48 73/164/48
f 71/162/48 70/182/48 2/141/48
f 2/141/48 70/182/48 69/183/48
f 2/141/48 69/183/48 68/144/48
